<?xml version="1.0" standalone="no"?>
<!DOCTYPE svg PUBLIC "-//W3C//DTD SVG 20010904//EN"
 "https://www.w3.org/TR/2001/REC-SVG-20010904/DTD/svg10.dtd">
<svg version="1.0" xmlns="https://www.w3.org/2000/svg"
 width="1318.000000pt" height="1318.000000pt" viewBox="0 0 1318.000000 1318.000000"
 preserveAspectRatio="xMidYMid meet">
<metadata>
Created by potrace 1.14, written by Peter Selinger 2001-2017
</metadata>
<g transform="translate(0.000000,1318.000000) scale(0.100000,-0.100000)"
fill="#000000" stroke="none">
<path d="M3830 10950 c-55 -8 -121 -27 -173 -48 -16 -7 -32 -12 -37 -12 -5 0
-10 -3 -12 -7 -1 -5 -23 -18 -48 -31 -118 -60 -213 -139 -293 -242 -23 -30
-45 -57 -49 -60 -4 -3 -12 -17 -17 -30 -6 -14 -15 -32 -20 -40 -5 -8 -17 -33
-26 -55 -9 -22 -20 -49 -25 -60 -5 -11 -12 -31 -14 -45 -2 -14 -9 -38 -16 -55
-14 -38 -16 -3849 -1 -3886 9 -25 30 -98 31 -111 0 -5 9 -24 20 -43 11 -20 20
-40 20 -46 0 -5 12 -28 27 -52 14 -23 25 -44 24 -46 -2 -2 4 -8 13 -13 9 -5
16 -14 16 -20 0 -16 189 -198 206 -198 8 0 14 -3 14 -8 0 -4 21 -19 48 -32 26
-14 49 -28 52 -31 3 -4 15 -9 28 -13 12 -4 22 -11 22 -16 0 -4 11 -11 25 -14
14 -4 25 -11 25 -16 0 -6 9 -10 20 -10 11 0 20 -4 20 -8 0 -4 22 -19 50 -33
27 -13 50 -27 50 -31 0 -5 7 -8 15 -8 8 0 15 -4 15 -10 0 -5 3 -9 8 -8 9 2 49
-17 87 -42 17 -11 53 -32 80 -47 28 -15 57 -32 66 -38 10 -5 41 -23 70 -38 30
-16 56 -32 59 -35 3 -4 23 -16 45 -27 22 -11 46 -26 53 -32 7 -7 18 -13 24
-13 5 0 22 -8 36 -19 15 -10 50 -31 77 -45 28 -15 59 -32 70 -39 53 -32 96
-57 160 -92 39 -21 89 -51 111 -66 23 -16 44 -26 46 -23 3 2 11 -2 18 -11 7
-8 16 -15 21 -15 5 0 38 -18 74 -40 36 -22 68 -40 70 -40 3 0 22 -11 43 -23
20 -13 60 -36 87 -51 120 -67 282 -168 311 -193 67 -62 131 -175 154 -275 10
-45 10 -75 1 -150 -6 -51 -12 -100 -12 -108 -1 -21 -31 -94 -44 -102 -5 -4 -6
-8 -1 -8 5 0 1 -9 -9 -20 -10 -11 -14 -20 -10 -20 5 0 -12 -20 -37 -45 -25
-25 -44 -45 -41 -45 3 0 -7 -10 -23 -22 -16 -13 -35 -28 -42 -35 -8 -7 -17
-11 -22 -8 -4 3 -11 -2 -14 -10 -3 -8 -9 -14 -13 -13 -4 1 -25 -6 -46 -15 -20
-9 -64 -21 -96 -28 -96 -18 -293 2 -312 32 -5 8 -9 11 -9 7 0 -7 -79 29 -90
41 -3 4 -26 16 -52 29 -27 13 -48 27 -48 31 0 4 -6 8 -13 8 -6 0 -30 11 -52
25 -22 14 -62 37 -90 53 -27 15 -90 50 -139 77 -88 49 -144 82 -181 106 -11 6
-27 15 -35 19 -8 4 -42 23 -75 43 -33 20 -67 39 -75 43 -8 4 -28 16 -45 27
-16 11 -37 23 -45 27 -47 24 -181 106 -186 114 -3 5 -9 7 -14 4 -4 -3 -13 2
-20 10 -7 8 -17 15 -22 15 -6 0 -49 24 -97 52 -47 29 -103 62 -123 72 -21 10
-35 23 -31 29 3 6 2 7 -4 4 -6 -4 -37 10 -69 29 -32 20 -69 40 -81 45 -13 5
-23 13 -23 19 0 5 -9 10 -19 10 -11 0 -22 4 -25 9 -3 5 -24 18 -45 29 -22 12
-49 27 -60 34 -11 7 -23 10 -26 6 -3 -3 -6 -596 -5 -1318 0 -1171 2 -1320 16
-1379 52 -212 161 -380 325 -504 78 -58 232 -143 273 -151 13 -2 33 -9 43 -14
71 -38 402 -35 490 4 17 8 35 14 41 14 5 0 29 9 53 19 24 11 46 19 49 18 4 -1
71 39 136 81 10 6 26 15 34 19 8 4 56 31 105 61 50 30 96 55 103 55 6 0 12 4
12 8 0 4 19 17 43 30 59 31 87 47 122 69 17 10 53 31 80 46 28 14 52 29 55 33
6 7 41 27 130 73 36 18 67 35 70 38 14 15 61 40 75 40 8 0 15 4 15 10 0 5 19
19 43 30 23 11 56 29 72 40 17 11 39 24 50 30 37 20 63 36 77 48 8 6 17 10 20
7 3 -3 13 4 23 15 10 11 26 20 36 20 9 0 19 3 21 8 5 11 108 72 123 72 7 0 15
4 17 8 7 16 78 53 89 46 7 -4 9 -3 5 4 -4 6 19 23 55 42 34 17 86 46 115 65
30 19 61 35 69 35 8 0 15 4 15 9 0 10 9 15 97 61 26 14 50 28 51 33 2 4 8 7
12 7 5 0 51 25 102 56 51 30 97 56 103 57 5 1 18 10 29 19 10 10 23 15 28 12
4 -3 8 0 8 6 0 6 11 15 23 19 13 5 54 28 91 50 36 23 68 41 71 41 3 0 80 44
150 87 11 7 31 17 45 23 13 6 27 15 30 19 3 4 19 14 35 22 17 8 48 26 70 39
22 14 42 24 45 23 3 -1 14 6 25 16 11 10 27 21 35 24 8 4 38 20 65 37 28 17
62 36 78 42 15 7 27 16 27 20 0 4 4 8 10 8 8 0 101 49 150 80 80 50 170 100
179 100 6 0 11 4 11 9 0 5 8 12 18 15 23 9 76 37 82 45 6 7 32 22 91 53 21 11
42 24 45 29 3 5 13 9 24 9 10 0 21 7 24 16 3 8 10 13 15 10 5 -4 16 1 24 9 9
8 26 19 39 25 26 11 50 25 95 57 17 13 36 23 41 23 6 0 12 7 16 15 3 8 12 15
20 15 7 0 16 7 20 15 3 8 10 15 15 15 9 0 46 37 111 109 28 31 101 141 94 141
-4 0 -1 8 7 18 26 30 63 128 73 192 3 19 8 46 11 60 17 66 17 221 0 321 -9 57
-21 113 -25 124 -5 11 -19 47 -32 80 -12 33 -26 62 -30 63 -5 2 -8 8 -8 14 0
16 -80 131 -102 146 -10 7 -18 19 -19 25 -1 26 -186 162 -309 226 -36 19 -67
37 -70 40 -3 3 -26 17 -52 31 -27 13 -48 28 -48 32 0 5 -7 8 -15 8 -8 0 -55
25 -105 55 -50 30 -93 55 -95 55 -2 0 -38 20 -78 45 -41 25 -77 45 -81 45 -3
0 -15 8 -26 18 -11 9 -24 17 -28 17 -4 0 -34 16 -67 36 -33 19 -67 38 -75 42
-8 4 -24 13 -35 20 -11 7 -47 28 -80 47 -33 19 -69 40 -80 47 -11 7 -27 15
-35 20 -8 4 -47 26 -86 50 -39 24 -75 43 -79 43 -4 0 -19 8 -33 19 -15 10 -51
31 -79 46 -29 15 -51 30 -49 34 3 4 -4 7 -14 8 -10 1 -37 13 -59 27 -22 14
-43 26 -45 26 -3 0 -24 12 -48 28 -62 39 -144 88 -271 159 -21 12 -47 29 -58
39 -10 9 -19 13 -19 9 0 -4 -8 -2 -17 6 -16 13 -40 27 -106 63 -12 6 -41 24
-64 39 -24 15 -46 27 -51 27 -4 0 -30 15 -57 33 -28 17 -67 41 -88 52 -20 11
-37 23 -37 28 0 4 -4 6 -10 2 -5 -3 -18 3 -30 15 -11 11 -22 20 -25 20 -3 0
-9 0 -13 0 -5 0 -18 9 -30 20 -12 11 -24 21 -27 21 -22 3 -45 13 -45 19 0 5
-12 13 -27 19 -29 11 -65 32 -73 42 -3 4 -15 9 -27 13 -13 4 -23 12 -23 17 0
5 -5 9 -11 9 -10 0 -124 64 -179 100 -8 6 -22 13 -30 17 -8 4 -33 18 -55 31
-22 14 -42 25 -45 24 -3 0 -12 5 -20 12 -8 7 -22 16 -30 20 -8 3 -28 15 -45
25 -16 11 -52 32 -79 46 -82 45 -91 50 -96 56 -3 4 -15 9 -28 13 -12 4 -20 12
-17 17 4 5 -3 9 -13 9 -11 0 -25 7 -32 15 -7 8 -17 15 -24 15 -15 0 -87 79
-128 142 -58 88 -73 146 -71 283 0 66 3 127 5 135 10 32 20 56 31 75 6 11 19
37 29 57 22 46 130 158 152 158 9 0 16 4 16 9 0 5 21 20 48 32 26 12 58 27 71
33 14 6 81 11 160 11 111 0 145 -4 181 -19 79 -33 112 -51 117 -63 3 -6 10
-10 17 -7 7 3 19 -2 26 -11 7 -8 18 -15 24 -15 7 0 21 -8 32 -18 10 -10 21
-19 24 -19 23 -6 50 -20 75 -39 17 -12 41 -28 55 -34 14 -6 34 -16 45 -23 11
-7 47 -28 80 -47 33 -19 69 -40 80 -47 11 -7 32 -17 48 -24 15 -6 27 -14 27
-17 0 -4 19 -16 43 -27 23 -11 70 -37 105 -57 34 -21 67 -38 72 -38 6 0 10 -4
10 -9 0 -5 12 -14 28 -20 15 -6 41 -20 57 -31 17 -11 39 -24 50 -30 11 -6 43
-24 70 -40 28 -16 57 -33 65 -37 8 -4 43 -24 78 -45 34 -21 64 -38 67 -38 2 0
39 -21 82 -46 43 -25 103 -60 133 -76 30 -17 60 -35 65 -42 6 -6 16 -12 22
-13 7 -2 42 -21 78 -43 36 -22 67 -40 70 -40 2 0 45 -25 95 -55 50 -30 93 -55
95 -55 2 0 67 -38 145 -85 78 -47 143 -85 146 -85 3 0 19 -9 35 -21 16 -11 29
-17 29 -13 0 3 7 0 16 -7 21 -17 55 -37 77 -45 9 -3 17 -10 17 -14 0 -5 10
-12 23 -16 12 -4 58 -29 102 -57 44 -27 89 -53 100 -59 11 -5 29 -14 40 -21
52 -32 142 -84 155 -90 8 -4 24 -13 35 -20 11 -7 46 -27 78 -45 31 -19 57 -37
57 -42 0 -5 6 -7 14 -4 7 3 20 -1 28 -8 18 -17 48 -36 75 -47 11 -6 24 -15 28
-20 3 -6 15 -11 26 -11 10 0 19 -4 19 -8 0 -5 23 -19 50 -32 28 -13 50 -26 50
-29 0 -3 23 -17 50 -30 28 -14 50 -29 50 -33 0 -4 9 -8 19 -8 11 0 21 -3 23
-8 2 -4 28 -23 58 -42 30 -19 57 -37 60 -40 3 -3 29 -22 58 -43 74 -53 203
-172 283 -262 59 -68 139 -172 139 -183 0 -6 3 -12 8 -14 11 -5 52 -66 52 -78
0 -5 5 -10 10 -10 6 0 10 -5 10 -12 0 -6 7 -19 16 -29 8 -9 16 -26 17 -38 1
-11 7 -23 14 -25 7 -3 13 -14 13 -24 0 -11 7 -25 15 -32 8 -7 13 -15 10 -19
-2 -4 5 -22 16 -39 10 -18 19 -41 19 -52 0 -11 4 -20 10 -20 5 0 12 -17 16
-37 4 -21 10 -43 15 -48 8 -11 23 -65 40 -145 5 -25 13 -56 18 -70 5 -14 12
-52 15 -85 2 -33 8 -71 11 -85 4 -14 9 -55 12 -92 l5 -66 37 15 c20 8 39 20
43 27 4 6 8 7 8 2 0 -5 8 -2 17 6 16 14 66 43 163 94 19 11 40 26 47 34 7 8
13 11 13 6 0 -5 8 -2 18 6 22 20 152 91 152 84 0 -4 9 3 21 15 11 11 34 25 50
31 16 5 29 14 29 19 0 5 6 9 13 9 6 0 37 16 67 34 30 19 57 33 61 30 4 -2 9 3
13 11 3 8 10 15 16 15 6 0 29 12 53 27 23 15 56 35 72 44 17 9 46 26 65 38 19
11 42 24 50 27 8 4 23 14 34 23 10 9 19 14 20 12 0 -3 20 8 44 23 24 15 53 31
65 36 30 14 61 33 69 45 4 6 8 6 8 1 0 -5 8 -2 18 6 9 9 40 28 67 43 28 14 64
35 80 46 17 10 37 22 45 26 8 4 20 11 25 15 6 5 21 17 34 28 13 11 28 17 34
13 6 -3 7 -1 3 5 -7 11 6 17 27 13 5 -1 6 2 3 7 -6 10 44 58 57 54 4 -1 7 5 7
13 0 8 3 15 8 15 4 0 18 17 32 37 14 20 31 43 39 51 8 7 31 47 51 88 21 40 39
71 42 69 3 -3 5 1 5 8 1 26 12 69 21 80 17 22 26 120 26 272 0 163 -8 242 -30
292 -8 17 -14 37 -14 45 0 7 -7 22 -15 32 -8 11 -15 28 -15 38 0 10 -4 18 -10
18 -5 0 -10 6 -10 13 0 8 -9 24 -20 37 -11 12 -17 27 -14 31 3 5 0 9 -6 9 -6
0 -14 8 -17 18 -9 23 -159 172 -205 202 -21 14 -38 28 -38 33 0 4 -6 7 -13 7
-7 0 -36 15 -65 34 -28 19 -52 32 -52 29 0 -3 -7 1 -16 8 -19 16 -50 34 -81
48 -13 6 -23 14 -23 19 0 4 -10 9 -22 9 -13 1 -28 9 -34 18 -7 9 -14 16 -16
15 -8 -4 -58 24 -58 32 0 5 -4 6 -10 3 -5 -3 -10 -1 -10 4 0 6 -4 11 -10 11
-16 0 -190 102 -190 112 0 5 -4 7 -9 4 -5 -3 -20 4 -35 15 -14 11 -26 17 -26
13 0 -4 -8 0 -17 8 -10 8 -25 18 -33 22 -8 3 -31 16 -50 27 -19 12 -54 32 -77
44 -23 13 -39 26 -36 29 4 3 -3 6 -15 6 -11 0 -27 9 -35 20 -8 11 -16 17 -19
14 -9 -8 -175 85 -189 107 -5 8 -9 11 -9 7 0 -10 -76 30 -90 48 -7 7 -16 12
-20 9 -4 -3 -13 2 -20 10 -7 8 -17 15 -22 15 -6 0 -29 13 -52 28 -22 15 -57
36 -76 46 -19 9 -57 31 -85 47 -27 16 -61 35 -75 41 -14 7 -28 17 -32 22 -3 5
-15 11 -25 12 -9 2 -19 8 -21 13 -2 6 -8 11 -13 11 -4 0 -43 20 -85 45 -41 25
-77 45 -80 45 -5 0 -108 62 -114 70 -3 3 -25 15 -50 28 -25 13 -67 37 -95 53
-27 16 -63 37 -80 45 -16 8 -52 28 -80 44 -27 16 -60 34 -72 39 -13 6 -23 15
-23 21 0 5 -6 10 -14 10 -7 0 -66 32 -130 70 -65 39 -119 70 -121 70 -1 0 -32
17 -66 39 -35 21 -74 41 -86 45 -13 4 -23 12 -23 17 0 5 -5 9 -11 9 -6 0 -45
20 -86 45 -40 25 -76 45 -79 45 -2 0 -23 12 -47 27 -23 14 -44 26 -47 26 -3
-1 -11 4 -19 10 -18 15 -53 35 -73 43 -10 3 -18 10 -18 15 0 5 -5 9 -11 9 -6
0 -37 15 -68 34 -31 19 -77 46 -103 60 -27 14 -69 38 -95 52 -60 32 -116 66
-123 73 -3 4 -21 14 -40 25 -82 43 -241 134 -290 166 -8 6 -22 13 -30 17 -8 4
-43 24 -78 45 -34 21 -66 38 -71 38 -4 0 -16 9 -26 20 -10 11 -21 17 -25 15
-4 -3 -13 2 -20 10 -7 8 -16 15 -21 15 -5 0 -43 20 -83 45 -41 25 -79 45 -85
45 -6 0 -11 5 -11 10 0 6 -5 10 -11 10 -6 0 -45 20 -86 45 -40 25 -78 45 -83
45 -6 0 -10 5 -10 10 0 6 -5 10 -11 10 -6 0 -48 22 -93 49 -88 53 -115 69
-221 130 -38 22 -92 54 -120 71 -27 16 -57 33 -65 37 -8 3 -42 24 -76 45 -34
21 -64 38 -68 38 -5 0 -52 27 -106 60 -54 33 -103 60 -109 60 -7 0 -14 7 -17
15 -4 8 -9 13 -13 10 -4 -2 -31 11 -59 30 -29 19 -52 31 -52 28 0 -3 -8 1 -17
9 -10 8 -25 18 -33 22 -8 3 -31 16 -50 27 -19 12 -48 29 -65 38 -16 9 -48 28
-70 42 -22 14 -47 29 -55 32 -8 4 -28 16 -45 27 -16 10 -41 25 -55 33 -14 7
-56 31 -95 52 -38 21 -72 41 -75 44 -3 4 -16 12 -30 18 -14 7 -47 26 -75 42
-27 16 -68 39 -90 51 -22 12 -42 25 -45 29 -3 3 -26 16 -51 29 -26 12 -52 29
-59 37 -7 8 -16 12 -21 9 -5 -3 -9 0 -9 5 0 6 -6 11 -13 11 -7 0 -36 15 -64
34 -28 19 -54 32 -56 30 -2 -3 -10 2 -17 11 -7 8 -18 15 -25 15 -8 0 -15 4
-17 8 -4 9 -150 82 -166 82 -5 0 -15 6 -22 14 -6 8 -17 13 -25 10 -7 -3 -30 2
-51 11 -45 19 -294 29 -384 15z"/>
</g>
</svg>
